# xmcd CD database file
#
# Track frame offsets:
#	150
#	9962
#	16601
#	27874
#	36396
#	42947
#
# Disc length: 716 seconds
#
# Revision: 0
# Processed by: cddbd v1.5.2PL0 Copyright (c) Steve Scherf et al.
# Submitted via: CDex 1.70beta2
#
DISCID=3702ca06
DTITLE=Zero 7 - Simple Things
DYEAR=1900
DGENRE=Jazz
TTITLE0=Destiny
TTITLE1=Simple Things
TTITLE2=Destructions
TTITLE3=I Have Seen
TTITLE4=In the Waiting Line
TTITLE5=Polaris
EXTD=
EXTT0=
EXTT1=
EXTT2=
EXTT3=
EXTT4=
EXTT5=
PLAYORDER=
